<mxfile host="www.draw.io" modified="2019-11-04T03:51:14.391Z" agent="Mozilla/5.0 (Windows NT 10.0; Win64; x64) AppleWebKit/537.36 (KHTML, like Gecko) Chrome/78.0.3904.70 Safari/537.36" etag="55s5e6F8BZtLAURWVkIp" version="12.1.9" type="github" pages="1">
  <diagram id="ViJpoDfOhojBk18W-Hzx" name="Page-1">
    <mxGraphModel dx="1571" dy="686" grid="1" gridSize="10" guides="1" tooltips="1" connect="1" arrows="1" fold="1" page="1" pageScale="1" pageWidth="827" pageHeight="1169" math="0" shadow="0">
      <root>
        <mxCell id="0"/>
        <mxCell id="1" parent="0"/>
        <mxCell id="3YVvCQ1gq88eceu3Uc82-1" value="&lt;font style=&quot;font-size: 15px&quot;&gt;&lt;b&gt;input&lt;/b&gt;&lt;/font&gt;" style="whiteSpace=wrap;html=1;aspect=fixed;" parent="1" vertex="1">
          <mxGeometry x="-75" y="420" width="80" height="80" as="geometry"/>
        </mxCell>
        <mxCell id="3YVvCQ1gq88eceu3Uc82-2" value="" style="endArrow=classic;html=1;exitX=1;exitY=0.5;exitDx=0;exitDy=0;" parent="1" source="3YVvCQ1gq88eceu3Uc82-1" edge="1">
          <mxGeometry width="50" height="50" relative="1" as="geometry">
            <mxPoint x="-75" y="570" as="sourcePoint"/>
            <mxPoint x="40" y="460" as="targetPoint"/>
          </mxGeometry>
        </mxCell>
        <mxCell id="3YVvCQ1gq88eceu3Uc82-3" value="" style="endArrow=classic;html=1;exitX=0.5;exitY=1;exitDx=0;exitDy=0;" parent="1" source="3YVvCQ1gq88eceu3Uc82-1" edge="1">
          <mxGeometry width="50" height="50" relative="1" as="geometry">
            <mxPoint x="-75" y="570" as="sourcePoint"/>
            <mxPoint x="-35" y="540" as="targetPoint"/>
          </mxGeometry>
        </mxCell>
        <mxCell id="3YVvCQ1gq88eceu3Uc82-4" value="&lt;font style=&quot;font-size: 15px&quot;&gt;&lt;b&gt;avgpooling&lt;/b&gt;&lt;/font&gt;" style="rounded=1;whiteSpace=wrap;html=1;fillColor=#d0cee2;strokeColor=#56517e;" parent="1" vertex="1">
          <mxGeometry x="-90" y="540" width="110" height="30" as="geometry"/>
        </mxCell>
        <mxCell id="3YVvCQ1gq88eceu3Uc82-5" value="" style="endArrow=classic;html=1;exitX=0.5;exitY=1;exitDx=0;exitDy=0;" parent="1" source="3YVvCQ1gq88eceu3Uc82-4" edge="1">
          <mxGeometry width="50" height="50" relative="1" as="geometry">
            <mxPoint x="-85" y="640" as="sourcePoint"/>
            <mxPoint x="-35" y="610" as="targetPoint"/>
          </mxGeometry>
        </mxCell>
        <mxCell id="3YVvCQ1gq88eceu3Uc82-6" value="&lt;font style=&quot;font-size: 15px&quot;&gt;&lt;b&gt;avgpooling&lt;/b&gt;&lt;/font&gt;" style="rounded=1;whiteSpace=wrap;html=1;fillColor=#d0cee2;strokeColor=#56517e;" parent="1" vertex="1">
          <mxGeometry x="-90" y="690" width="110" height="30" as="geometry"/>
        </mxCell>
        <mxCell id="3YVvCQ1gq88eceu3Uc82-7" value="&lt;font style=&quot;font-size: 15px&quot;&gt;&lt;b&gt;input&lt;/b&gt;&lt;/font&gt;" style="whiteSpace=wrap;html=1;aspect=fixed;" parent="1" vertex="1">
          <mxGeometry x="-55" y="610" width="40" height="40" as="geometry"/>
        </mxCell>
        <mxCell id="3YVvCQ1gq88eceu3Uc82-8" value="" style="endArrow=classic;html=1;exitX=0.5;exitY=1;exitDx=0;exitDy=0;" parent="1" edge="1">
          <mxGeometry width="50" height="50" relative="1" as="geometry">
            <mxPoint x="-35" y="650" as="sourcePoint"/>
            <mxPoint x="-35" y="690" as="targetPoint"/>
          </mxGeometry>
        </mxCell>
        <mxCell id="3YVvCQ1gq88eceu3Uc82-11" value="" style="endArrow=classic;html=1;exitX=0.5;exitY=1;exitDx=0;exitDy=0;" parent="1" edge="1">
          <mxGeometry width="50" height="50" relative="1" as="geometry">
            <mxPoint x="-35" y="720" as="sourcePoint"/>
            <mxPoint x="-35" y="760" as="targetPoint"/>
          </mxGeometry>
        </mxCell>
        <mxCell id="3YVvCQ1gq88eceu3Uc82-12" value="&lt;font style=&quot;font-size: 8px&quot;&gt;&lt;b&gt;input&lt;/b&gt;&lt;/font&gt;" style="whiteSpace=wrap;html=1;aspect=fixed;" parent="1" vertex="1">
          <mxGeometry x="-50" y="760" width="30" height="30" as="geometry"/>
        </mxCell>
        <mxCell id="3YVvCQ1gq88eceu3Uc82-13" value="&lt;font style=&quot;font-size: 15px&quot;&gt;&lt;b&gt;MSCFB&lt;/b&gt;&lt;/font&gt;" style="rounded=1;whiteSpace=wrap;html=1;fillColor=#b1ddf0;strokeColor=#10739e;" parent="1" vertex="1">
          <mxGeometry x="299" y="435" width="90" height="50" as="geometry"/>
        </mxCell>
        <mxCell id="3YVvCQ1gq88eceu3Uc82-14" value="&lt;font style=&quot;font-size: 15px&quot;&gt;&lt;b&gt;MSCFB&lt;/b&gt;&lt;/font&gt;" style="rounded=1;whiteSpace=wrap;html=1;fillColor=#b1ddf0;strokeColor=#10739e;" parent="1" vertex="1">
          <mxGeometry x="465" y="435" width="90" height="50" as="geometry"/>
        </mxCell>
        <mxCell id="3YVvCQ1gq88eceu3Uc82-17" value="&lt;font style=&quot;font-size: 15px&quot;&gt;&lt;b&gt;MSCFB&lt;/b&gt;&lt;/font&gt;" style="rounded=1;whiteSpace=wrap;html=1;fillColor=#b1ddf0;strokeColor=#10739e;" parent="1" vertex="1">
          <mxGeometry x="688" y="435" width="90" height="50" as="geometry"/>
        </mxCell>
        <mxCell id="3YVvCQ1gq88eceu3Uc82-18" value="" style="endArrow=classic;html=1;entryX=0;entryY=0.5;entryDx=0;entryDy=0;exitX=1;exitY=0.5;exitDx=0;exitDy=0;" parent="1" target="3YVvCQ1gq88eceu3Uc82-17" edge="1">
          <mxGeometry width="50" height="50" relative="1" as="geometry">
            <mxPoint x="658" y="460" as="sourcePoint"/>
            <mxPoint x="478" y="810" as="targetPoint"/>
          </mxGeometry>
        </mxCell>
        <mxCell id="3YVvCQ1gq88eceu3Uc82-19" value="" style="endArrow=classic;html=1;exitX=1;exitY=0.5;exitDx=0;exitDy=0;" parent="1" edge="1">
          <mxGeometry width="50" height="50" relative="1" as="geometry">
            <mxPoint x="555" y="460" as="sourcePoint"/>
            <mxPoint x="570" y="460" as="targetPoint"/>
          </mxGeometry>
        </mxCell>
        <mxCell id="3YVvCQ1gq88eceu3Uc82-22" value="&lt;font style=&quot;font-size: 15px&quot;&gt;&lt;b&gt;output&lt;/b&gt;&lt;/font&gt;" style="whiteSpace=wrap;html=1;aspect=fixed;" parent="1" vertex="1">
          <mxGeometry x="1100" y="420" width="80" height="80" as="geometry"/>
        </mxCell>
        <mxCell id="3YVvCQ1gq88eceu3Uc82-24" value="&lt;b style=&quot;font-size: 15px&quot;&gt;conv-3&lt;/b&gt;" style="rounded=1;whiteSpace=wrap;html=1;fillColor=#fad7ac;strokeColor=#b46504;" parent="1" vertex="1">
          <mxGeometry x="40" y="445" width="60" height="30" as="geometry"/>
        </mxCell>
        <mxCell id="3YVvCQ1gq88eceu3Uc82-25" value="" style="endArrow=classic;html=1;exitX=1;exitY=0.5;exitDx=0;exitDy=0;" parent="1" edge="1">
          <mxGeometry width="50" height="50" relative="1" as="geometry">
            <mxPoint x="-15" y="630" as="sourcePoint"/>
            <mxPoint x="20" y="630" as="targetPoint"/>
          </mxGeometry>
        </mxCell>
        <mxCell id="3YVvCQ1gq88eceu3Uc82-26" value="&lt;b style=&quot;font-size: 15px&quot;&gt;conv-3&lt;/b&gt;" style="rounded=1;whiteSpace=wrap;html=1;fillColor=#fad7ac;strokeColor=#b46504;" parent="1" vertex="1">
          <mxGeometry x="20.5" y="615" width="60" height="30" as="geometry"/>
        </mxCell>
        <mxCell id="3YVvCQ1gq88eceu3Uc82-27" value="" style="endArrow=classic;html=1;exitX=1;exitY=0.5;exitDx=0;exitDy=0;" parent="1" edge="1">
          <mxGeometry width="50" height="50" relative="1" as="geometry">
            <mxPoint x="-20" y="775" as="sourcePoint"/>
            <mxPoint x="10" y="775" as="targetPoint"/>
          </mxGeometry>
        </mxCell>
        <mxCell id="3YVvCQ1gq88eceu3Uc82-28" value="&lt;b style=&quot;font-size: 15px&quot;&gt;conv-3&lt;/b&gt;" style="rounded=1;whiteSpace=wrap;html=1;fillColor=#fad7ac;strokeColor=#b46504;" parent="1" vertex="1">
          <mxGeometry x="10" y="760" width="60" height="30" as="geometry"/>
        </mxCell>
        <mxCell id="3YVvCQ1gq88eceu3Uc82-29" value="&lt;b&gt;&lt;font style=&quot;font-size: 15px&quot;&gt;cat&lt;/font&gt;&lt;/b&gt;" style="ellipse;whiteSpace=wrap;html=1;aspect=fixed;fillColor=#fad9d5;strokeColor=#ae4132;" parent="1" vertex="1">
          <mxGeometry x="115" y="610" width="40" height="40" as="geometry"/>
        </mxCell>
        <mxCell id="3YVvCQ1gq88eceu3Uc82-33" value="" style="endArrow=classic;html=1;exitX=1;exitY=0.5;exitDx=0;exitDy=0;" parent="1" edge="1">
          <mxGeometry width="50" height="50" relative="1" as="geometry">
            <mxPoint x="80.5" y="629" as="sourcePoint"/>
            <mxPoint x="115.5" y="629" as="targetPoint"/>
          </mxGeometry>
        </mxCell>
        <mxCell id="3YVvCQ1gq88eceu3Uc82-34" value="&lt;b&gt;&lt;font style=&quot;font-size: 15px&quot;&gt;cat&lt;/font&gt;&lt;/b&gt;" style="ellipse;whiteSpace=wrap;html=1;aspect=fixed;fillColor=#fad9d5;strokeColor=#ae4132;" parent="1" vertex="1">
          <mxGeometry x="134.5" y="440" width="40" height="40" as="geometry"/>
        </mxCell>
        <mxCell id="3YVvCQ1gq88eceu3Uc82-35" value="" style="endArrow=classic;html=1;exitX=1;exitY=0.5;exitDx=0;exitDy=0;" parent="1" edge="1">
          <mxGeometry width="50" height="50" relative="1" as="geometry">
            <mxPoint x="100" y="459" as="sourcePoint"/>
            <mxPoint x="135" y="459" as="targetPoint"/>
          </mxGeometry>
        </mxCell>
        <mxCell id="3YVvCQ1gq88eceu3Uc82-36" value="" style="endArrow=classic;html=1;entryX=0;entryY=0.5;entryDx=0;entryDy=0;exitX=1;exitY=0.5;exitDx=0;exitDy=0;" parent="1" edge="1">
          <mxGeometry width="50" height="50" relative="1" as="geometry">
            <mxPoint x="174.5" y="460" as="sourcePoint"/>
            <mxPoint x="204.5" y="460" as="targetPoint"/>
          </mxGeometry>
        </mxCell>
        <mxCell id="3YVvCQ1gq88eceu3Uc82-37" value="&lt;b style=&quot;font-size: 15px&quot;&gt;conv-3&lt;/b&gt;" style="rounded=1;whiteSpace=wrap;html=1;fillColor=#fad7ac;strokeColor=#b46504;" parent="1" vertex="1">
          <mxGeometry x="204" y="445" width="60" height="30" as="geometry"/>
        </mxCell>
        <mxCell id="3YVvCQ1gq88eceu3Uc82-38" value="" style="endArrow=classic;html=1;exitX=1;exitY=0.5;exitDx=0;exitDy=0;" parent="1" edge="1">
          <mxGeometry width="50" height="50" relative="1" as="geometry">
            <mxPoint x="264" y="459" as="sourcePoint"/>
            <mxPoint x="299" y="459" as="targetPoint"/>
          </mxGeometry>
        </mxCell>
        <mxCell id="3YVvCQ1gq88eceu3Uc82-40" value="&lt;font style=&quot;font-size: 15px&quot;&gt;&lt;b&gt;MSCFB&lt;/b&gt;&lt;/font&gt;" style="rounded=1;whiteSpace=wrap;html=1;fillColor=#b1ddf0;strokeColor=#10739e;" parent="1" vertex="1">
          <mxGeometry x="279" y="605" width="90" height="50" as="geometry"/>
        </mxCell>
        <mxCell id="3YVvCQ1gq88eceu3Uc82-41" value="&lt;font style=&quot;font-size: 15px&quot;&gt;&lt;b&gt;MSCFB&lt;/b&gt;&lt;/font&gt;" style="rounded=1;whiteSpace=wrap;html=1;fillColor=#b1ddf0;strokeColor=#10739e;" parent="1" vertex="1">
          <mxGeometry x="399" y="605" width="90" height="50" as="geometry"/>
        </mxCell>
        <mxCell id="3YVvCQ1gq88eceu3Uc82-42" value="" style="endArrow=classic;html=1;entryX=0;entryY=0.5;entryDx=0;entryDy=0;exitX=1;exitY=0.5;exitDx=0;exitDy=0;" parent="1" source="3YVvCQ1gq88eceu3Uc82-40" target="3YVvCQ1gq88eceu3Uc82-41" edge="1">
          <mxGeometry width="50" height="50" relative="1" as="geometry">
            <mxPoint x="139" y="1030" as="sourcePoint"/>
            <mxPoint x="189" y="980" as="targetPoint"/>
          </mxGeometry>
        </mxCell>
        <mxCell id="3YVvCQ1gq88eceu3Uc82-44" value="&lt;font style=&quot;font-size: 15px&quot;&gt;&lt;b&gt;MSCFB&lt;/b&gt;&lt;/font&gt;" style="rounded=1;whiteSpace=wrap;html=1;fillColor=#b1ddf0;strokeColor=#10739e;" parent="1" vertex="1">
          <mxGeometry x="589" y="605" width="90" height="50" as="geometry"/>
        </mxCell>
        <mxCell id="3YVvCQ1gq88eceu3Uc82-45" value="" style="endArrow=classic;html=1;entryX=0;entryY=0.5;entryDx=0;entryDy=0;exitX=1;exitY=0.5;exitDx=0;exitDy=0;" parent="1" target="3YVvCQ1gq88eceu3Uc82-44" edge="1">
          <mxGeometry width="50" height="50" relative="1" as="geometry">
            <mxPoint x="559" y="630" as="sourcePoint"/>
            <mxPoint x="379" y="980" as="targetPoint"/>
          </mxGeometry>
        </mxCell>
        <mxCell id="3YVvCQ1gq88eceu3Uc82-46" value="" style="endArrow=classic;html=1;entryX=0;entryY=0.5;entryDx=0;entryDy=0;exitX=1;exitY=0.5;exitDx=0;exitDy=0;" parent="1" edge="1">
          <mxGeometry width="50" height="50" relative="1" as="geometry">
            <mxPoint x="489" y="630" as="sourcePoint"/>
            <mxPoint x="519" y="630" as="targetPoint"/>
          </mxGeometry>
        </mxCell>
        <mxCell id="3YVvCQ1gq88eceu3Uc82-48" value="&lt;font style=&quot;font-size: 15px&quot;&gt;&lt;b&gt;output&lt;/b&gt;&lt;/font&gt;" style="whiteSpace=wrap;html=1;aspect=fixed;" parent="1" vertex="1">
          <mxGeometry x="822" y="605" width="50" height="50" as="geometry"/>
        </mxCell>
        <mxCell id="3YVvCQ1gq88eceu3Uc82-49" value="" style="endArrow=classic;html=1;entryX=0;entryY=0.5;entryDx=0;entryDy=0;exitX=1;exitY=0.5;exitDx=0;exitDy=0;" parent="1" edge="1">
          <mxGeometry width="50" height="50" relative="1" as="geometry">
            <mxPoint x="154.5" y="630" as="sourcePoint"/>
            <mxPoint x="184.5" y="630" as="targetPoint"/>
          </mxGeometry>
        </mxCell>
        <mxCell id="3YVvCQ1gq88eceu3Uc82-50" value="&lt;b style=&quot;font-size: 15px&quot;&gt;conv-3&lt;/b&gt;" style="rounded=1;whiteSpace=wrap;html=1;fillColor=#fad7ac;strokeColor=#b46504;" parent="1" vertex="1">
          <mxGeometry x="184" y="615" width="60" height="30" as="geometry"/>
        </mxCell>
        <mxCell id="3YVvCQ1gq88eceu3Uc82-51" value="" style="endArrow=classic;html=1;exitX=1;exitY=0.5;exitDx=0;exitDy=0;" parent="1" edge="1">
          <mxGeometry width="50" height="50" relative="1" as="geometry">
            <mxPoint x="244" y="629" as="sourcePoint"/>
            <mxPoint x="279" y="629" as="targetPoint"/>
          </mxGeometry>
        </mxCell>
        <mxCell id="3YVvCQ1gq88eceu3Uc82-52" value="" style="endArrow=classic;html=1;entryX=0;entryY=0.5;entryDx=0;entryDy=0;exitX=1;exitY=0.5;exitDx=0;exitDy=0;" parent="1" edge="1">
          <mxGeometry width="50" height="50" relative="1" as="geometry">
            <mxPoint x="792" y="629.5" as="sourcePoint"/>
            <mxPoint x="822" y="629.5" as="targetPoint"/>
          </mxGeometry>
        </mxCell>
        <mxCell id="3YVvCQ1gq88eceu3Uc82-53" value="&lt;b style=&quot;font-size: 15px&quot;&gt;conv-3&lt;/b&gt;" style="rounded=1;whiteSpace=wrap;html=1;fillColor=#fad7ac;strokeColor=#b46504;" parent="1" vertex="1">
          <mxGeometry x="732" y="615" width="60" height="30" as="geometry"/>
        </mxCell>
        <mxCell id="3YVvCQ1gq88eceu3Uc82-55" value="" style="endArrow=classic;html=1;exitX=1;exitY=0.5;exitDx=0;exitDy=0;entryX=0.5;entryY=1;entryDx=0;entryDy=0;" parent="1" source="3YVvCQ1gq88eceu3Uc82-48" target="3YVvCQ1gq88eceu3Uc82-34" edge="1">
          <mxGeometry width="50" height="50" relative="1" as="geometry">
            <mxPoint x="-70" y="860" as="sourcePoint"/>
            <mxPoint x="140" y="590" as="targetPoint"/>
            <Array as="points">
              <mxPoint x="910" y="630"/>
              <mxPoint x="910" y="590"/>
              <mxPoint x="155" y="590"/>
            </Array>
          </mxGeometry>
        </mxCell>
        <mxCell id="3YVvCQ1gq88eceu3Uc82-56" value="" style="endArrow=classic;html=1;entryX=0;entryY=0.5;entryDx=0;entryDy=0;exitX=1;exitY=0.5;exitDx=0;exitDy=0;" parent="1" edge="1">
          <mxGeometry width="50" height="50" relative="1" as="geometry">
            <mxPoint x="980" y="459.5" as="sourcePoint"/>
            <mxPoint x="1010" y="459.5" as="targetPoint"/>
          </mxGeometry>
        </mxCell>
        <mxCell id="3YVvCQ1gq88eceu3Uc82-57" value="&lt;b style=&quot;font-size: 15px&quot;&gt;conv-3&lt;/b&gt;" style="rounded=1;whiteSpace=wrap;html=1;fillColor=#fad7ac;strokeColor=#b46504;" parent="1" vertex="1">
          <mxGeometry x="920" y="445" width="60" height="30" as="geometry"/>
        </mxCell>
        <mxCell id="3YVvCQ1gq88eceu3Uc82-59" value="&lt;b style=&quot;font-size: 15px&quot;&gt;conv-3&lt;/b&gt;" style="rounded=1;whiteSpace=wrap;html=1;fillColor=#fad7ac;strokeColor=#b46504;" parent="1" vertex="1">
          <mxGeometry x="1010" y="445" width="60" height="30" as="geometry"/>
        </mxCell>
        <mxCell id="3YVvCQ1gq88eceu3Uc82-61" value="" style="endArrow=classic;html=1;entryX=0;entryY=0.5;entryDx=0;entryDy=0;exitX=1;exitY=0.5;exitDx=0;exitDy=0;" parent="1" edge="1">
          <mxGeometry width="50" height="50" relative="1" as="geometry">
            <mxPoint x="1070" y="459.5" as="sourcePoint"/>
            <mxPoint x="1100" y="459.5" as="targetPoint"/>
          </mxGeometry>
        </mxCell>
        <mxCell id="3YVvCQ1gq88eceu3Uc82-63" value="" style="endArrow=classic;html=1;exitX=1;exitY=0.5;exitDx=0;exitDy=0;" parent="1" edge="1">
          <mxGeometry width="50" height="50" relative="1" as="geometry">
            <mxPoint x="70.5" y="775" as="sourcePoint"/>
            <mxPoint x="105.5" y="775" as="targetPoint"/>
          </mxGeometry>
        </mxCell>
        <mxCell id="3YVvCQ1gq88eceu3Uc82-64" value="&lt;font style=&quot;font-size: 15px&quot;&gt;&lt;b&gt;MSCFB&lt;/b&gt;&lt;/font&gt;" style="rounded=1;whiteSpace=wrap;html=1;fillColor=#b1ddf0;strokeColor=#10739e;" parent="1" vertex="1">
          <mxGeometry x="107" y="750" width="90" height="50" as="geometry"/>
        </mxCell>
        <mxCell id="3YVvCQ1gq88eceu3Uc82-65" value="&lt;font style=&quot;font-size: 15px&quot;&gt;&lt;b&gt;MSCFB&lt;/b&gt;&lt;/font&gt;" style="rounded=1;whiteSpace=wrap;html=1;fillColor=#b1ddf0;strokeColor=#10739e;" parent="1" vertex="1">
          <mxGeometry x="227" y="750" width="90" height="50" as="geometry"/>
        </mxCell>
        <mxCell id="3YVvCQ1gq88eceu3Uc82-66" value="" style="endArrow=classic;html=1;entryX=0;entryY=0.5;entryDx=0;entryDy=0;exitX=1;exitY=0.5;exitDx=0;exitDy=0;" parent="1" source="3YVvCQ1gq88eceu3Uc82-64" target="3YVvCQ1gq88eceu3Uc82-65" edge="1">
          <mxGeometry width="50" height="50" relative="1" as="geometry">
            <mxPoint x="-33" y="1175" as="sourcePoint"/>
            <mxPoint x="17" y="1125" as="targetPoint"/>
          </mxGeometry>
        </mxCell>
        <mxCell id="3YVvCQ1gq88eceu3Uc82-68" value="&lt;font style=&quot;font-size: 15px&quot;&gt;&lt;b&gt;MSCFB&lt;/b&gt;&lt;/font&gt;" style="rounded=1;whiteSpace=wrap;html=1;fillColor=#b1ddf0;strokeColor=#10739e;" parent="1" vertex="1">
          <mxGeometry x="420" y="750" width="90" height="50" as="geometry"/>
        </mxCell>
        <mxCell id="3YVvCQ1gq88eceu3Uc82-69" value="" style="endArrow=classic;html=1;entryX=0;entryY=0.5;entryDx=0;entryDy=0;exitX=1;exitY=0.5;exitDx=0;exitDy=0;" parent="1" target="3YVvCQ1gq88eceu3Uc82-68" edge="1">
          <mxGeometry width="50" height="50" relative="1" as="geometry">
            <mxPoint x="390" y="775" as="sourcePoint"/>
            <mxPoint x="210" y="1125" as="targetPoint"/>
          </mxGeometry>
        </mxCell>
        <mxCell id="3YVvCQ1gq88eceu3Uc82-70" value="" style="endArrow=classic;html=1;entryX=0;entryY=0.5;entryDx=0;entryDy=0;exitX=1;exitY=0.5;exitDx=0;exitDy=0;" parent="1" edge="1">
          <mxGeometry width="50" height="50" relative="1" as="geometry">
            <mxPoint x="317" y="775" as="sourcePoint"/>
            <mxPoint x="347" y="775" as="targetPoint"/>
          </mxGeometry>
        </mxCell>
        <mxCell id="3YVvCQ1gq88eceu3Uc82-75" value="" style="endArrow=classic;html=1;entryX=0;entryY=0.5;entryDx=0;entryDy=0;exitX=1;exitY=0.5;exitDx=0;exitDy=0;" parent="1" edge="1">
          <mxGeometry width="50" height="50" relative="1" as="geometry">
            <mxPoint x="638" y="774.5" as="sourcePoint"/>
            <mxPoint x="668" y="774.5" as="targetPoint"/>
          </mxGeometry>
        </mxCell>
        <mxCell id="3YVvCQ1gq88eceu3Uc82-76" value="&lt;b style=&quot;font-size: 15px&quot;&gt;conv-3&lt;/b&gt;" style="rounded=1;whiteSpace=wrap;html=1;fillColor=#fad7ac;strokeColor=#b46504;" parent="1" vertex="1">
          <mxGeometry x="578" y="760" width="60" height="30" as="geometry"/>
        </mxCell>
        <mxCell id="3YVvCQ1gq88eceu3Uc82-78" value="" style="endArrow=classic;html=1;exitX=1;exitY=0.5;exitDx=0;exitDy=0;entryX=0.5;entryY=1;entryDx=0;entryDy=0;" parent="1" source="3YVvCQ1gq88eceu3Uc82-79" target="3YVvCQ1gq88eceu3Uc82-29" edge="1">
          <mxGeometry width="50" height="50" relative="1" as="geometry">
            <mxPoint x="890" y="776" as="sourcePoint"/>
            <mxPoint x="144.5" y="626" as="targetPoint"/>
            <Array as="points">
              <mxPoint x="780" y="776"/>
              <mxPoint x="780" y="736"/>
              <mxPoint x="135" y="736"/>
            </Array>
          </mxGeometry>
        </mxCell>
        <mxCell id="3YVvCQ1gq88eceu3Uc82-79" value="&lt;font style=&quot;font-size: 8px&quot;&gt;&lt;b&gt;output&lt;/b&gt;&lt;/font&gt;" style="whiteSpace=wrap;html=1;aspect=fixed;" parent="1" vertex="1">
          <mxGeometry x="669" y="755" width="40" height="40" as="geometry"/>
        </mxCell>
        <mxCell id="3YVvCQ1gq88eceu3Uc82-86" value="" style="endArrow=classic;html=1;exitX=0.5;exitY=1;exitDx=0;exitDy=0;entryX=0.5;entryY=0;entryDx=0;entryDy=0;" parent="1" source="3YVvCQ1gq88eceu3Uc82-64" target="3YVvCQ1gq88eceu3Uc82-87" edge="1">
          <mxGeometry width="50" height="50" relative="1" as="geometry">
            <mxPoint x="-70" y="870" as="sourcePoint"/>
            <mxPoint x="330" y="870" as="targetPoint"/>
          </mxGeometry>
        </mxCell>
        <mxCell id="3YVvCQ1gq88eceu3Uc82-87" value="&lt;b&gt;&lt;font style=&quot;font-size: 15px&quot;&gt;cat&lt;/font&gt;&lt;/b&gt;" style="ellipse;whiteSpace=wrap;html=1;aspect=fixed;fillColor=#fad9d5;strokeColor=#ae4132;" parent="1" vertex="1">
          <mxGeometry x="264" y="850" width="40" height="40" as="geometry"/>
        </mxCell>
        <mxCell id="3YVvCQ1gq88eceu3Uc82-88" value="" style="endArrow=classic;html=1;exitX=0.5;exitY=1;exitDx=0;exitDy=0;entryX=0.5;entryY=0;entryDx=0;entryDy=0;" parent="1" source="3YVvCQ1gq88eceu3Uc82-65" target="3YVvCQ1gq88eceu3Uc82-87" edge="1">
          <mxGeometry width="50" height="50" relative="1" as="geometry">
            <mxPoint x="-70" y="960" as="sourcePoint"/>
            <mxPoint x="-20" y="910" as="targetPoint"/>
          </mxGeometry>
        </mxCell>
        <mxCell id="3YVvCQ1gq88eceu3Uc82-89" value="" style="endArrow=classic;html=1;exitX=0.5;exitY=1;exitDx=0;exitDy=0;entryX=0.5;entryY=0;entryDx=0;entryDy=0;" parent="1" source="3YVvCQ1gq88eceu3Uc82-93" target="3YVvCQ1gq88eceu3Uc82-87" edge="1">
          <mxGeometry width="50" height="50" relative="1" as="geometry">
            <mxPoint x="392" y="800" as="sourcePoint"/>
            <mxPoint x="350" y="850" as="targetPoint"/>
          </mxGeometry>
        </mxCell>
        <mxCell id="3YVvCQ1gq88eceu3Uc82-90" value="" style="endArrow=classic;html=1;exitX=0.5;exitY=1;exitDx=0;exitDy=0;entryX=0.5;entryY=0;entryDx=0;entryDy=0;" parent="1" source="3YVvCQ1gq88eceu3Uc82-68" target="3YVvCQ1gq88eceu3Uc82-87" edge="1">
          <mxGeometry width="50" height="50" relative="1" as="geometry">
            <mxPoint x="-70" y="960" as="sourcePoint"/>
            <mxPoint x="-20" y="910" as="targetPoint"/>
          </mxGeometry>
        </mxCell>
        <mxCell id="3YVvCQ1gq88eceu3Uc82-91" value="" style="endArrow=classic;html=1;exitX=1;exitY=0.5;exitDx=0;exitDy=0;" parent="1" source="3YVvCQ1gq88eceu3Uc82-87" edge="1">
          <mxGeometry width="50" height="50" relative="1" as="geometry">
            <mxPoint x="-135" y="960" as="sourcePoint"/>
            <mxPoint x="375" y="870" as="targetPoint"/>
          </mxGeometry>
        </mxCell>
        <mxCell id="3YVvCQ1gq88eceu3Uc82-92" value="&lt;b style=&quot;font-size: 15px&quot;&gt;conv-1&lt;/b&gt;" style="rounded=1;whiteSpace=wrap;html=1;fillColor=#b0e3e6;strokeColor=#0e8088;" parent="1" vertex="1">
          <mxGeometry x="375" y="855" width="60" height="30" as="geometry"/>
        </mxCell>
        <mxCell id="3YVvCQ1gq88eceu3Uc82-93" value="&lt;b&gt;&lt;font style=&quot;font-size: 20px&quot;&gt;....&lt;/font&gt;&lt;/b&gt;" style="text;html=1;strokeColor=none;fillColor=none;align=center;verticalAlign=middle;whiteSpace=wrap;rounded=0;" parent="1" vertex="1">
          <mxGeometry x="347" y="760" width="40" height="20" as="geometry"/>
        </mxCell>
        <mxCell id="3YVvCQ1gq88eceu3Uc82-95" value="&lt;b&gt;&lt;font style=&quot;font-size: 20px&quot;&gt;....&lt;/font&gt;&lt;/b&gt;" style="text;html=1;strokeColor=none;fillColor=none;align=center;verticalAlign=middle;whiteSpace=wrap;rounded=0;" parent="1" vertex="1">
          <mxGeometry x="519" y="615" width="40" height="20" as="geometry"/>
        </mxCell>
        <mxCell id="3YVvCQ1gq88eceu3Uc82-96" value="&lt;b&gt;&lt;font style=&quot;font-size: 20px&quot;&gt;....&lt;/font&gt;&lt;/b&gt;" style="text;html=1;strokeColor=none;fillColor=none;align=center;verticalAlign=middle;whiteSpace=wrap;rounded=0;" parent="1" vertex="1">
          <mxGeometry x="620" y="445" width="40" height="20" as="geometry"/>
        </mxCell>
        <mxCell id="3YVvCQ1gq88eceu3Uc82-97" value="" style="endArrow=classic;html=1;exitX=1;exitY=0.5;exitDx=0;exitDy=0;entryX=0;entryY=0.5;entryDx=0;entryDy=0;" parent="1" source="3YVvCQ1gq88eceu3Uc82-92" target="3YVvCQ1gq88eceu3Uc82-76" edge="1">
          <mxGeometry width="50" height="50" relative="1" as="geometry">
            <mxPoint x="-70" y="960" as="sourcePoint"/>
            <mxPoint x="540" y="780" as="targetPoint"/>
            <Array as="points">
              <mxPoint x="540" y="870"/>
              <mxPoint x="540" y="775"/>
            </Array>
          </mxGeometry>
        </mxCell>
        <mxCell id="3YVvCQ1gq88eceu3Uc82-98" value="" style="endArrow=classic;html=1;exitX=0.5;exitY=1;exitDx=0;exitDy=0;entryX=0.5;entryY=0;entryDx=0;entryDy=0;" parent="1" source="3YVvCQ1gq88eceu3Uc82-40" target="3YVvCQ1gq88eceu3Uc82-99" edge="1">
          <mxGeometry width="50" height="50" relative="1" as="geometry">
            <mxPoint x="314" y="655" as="sourcePoint"/>
            <mxPoint x="492" y="725" as="targetPoint"/>
          </mxGeometry>
        </mxCell>
        <mxCell id="3YVvCQ1gq88eceu3Uc82-99" value="&lt;b&gt;&lt;font style=&quot;font-size: 15px&quot;&gt;cat&lt;/font&gt;&lt;/b&gt;" style="ellipse;whiteSpace=wrap;html=1;aspect=fixed;fillColor=#fad9d5;strokeColor=#ae4132;" parent="1" vertex="1">
          <mxGeometry x="470" y="670" width="40" height="40" as="geometry"/>
        </mxCell>
        <mxCell id="3YVvCQ1gq88eceu3Uc82-100" value="" style="endArrow=classic;html=1;exitX=0.5;exitY=1;exitDx=0;exitDy=0;entryX=0.5;entryY=0;entryDx=0;entryDy=0;" parent="1" source="3YVvCQ1gq88eceu3Uc82-41" target="3YVvCQ1gq88eceu3Uc82-99" edge="1">
          <mxGeometry width="50" height="50" relative="1" as="geometry">
            <mxPoint x="434" y="655" as="sourcePoint"/>
            <mxPoint x="142" y="765" as="targetPoint"/>
          </mxGeometry>
        </mxCell>
        <mxCell id="3YVvCQ1gq88eceu3Uc82-101" value="" style="endArrow=classic;html=1;exitX=0.5;exitY=1;exitDx=0;exitDy=0;entryX=0.5;entryY=0;entryDx=0;entryDy=0;" parent="1" source="3YVvCQ1gq88eceu3Uc82-95" target="3YVvCQ1gq88eceu3Uc82-99" edge="1">
          <mxGeometry width="50" height="50" relative="1" as="geometry">
            <mxPoint x="529" y="635" as="sourcePoint"/>
            <mxPoint x="512" y="705" as="targetPoint"/>
          </mxGeometry>
        </mxCell>
        <mxCell id="3YVvCQ1gq88eceu3Uc82-102" value="" style="endArrow=classic;html=1;exitX=0.5;exitY=1;exitDx=0;exitDy=0;entryX=0.5;entryY=0;entryDx=0;entryDy=0;" parent="1" source="3YVvCQ1gq88eceu3Uc82-44" target="3YVvCQ1gq88eceu3Uc82-99" edge="1">
          <mxGeometry width="50" height="50" relative="1" as="geometry">
            <mxPoint x="627" y="655" as="sourcePoint"/>
            <mxPoint x="142" y="765" as="targetPoint"/>
          </mxGeometry>
        </mxCell>
        <mxCell id="3YVvCQ1gq88eceu3Uc82-103" value="" style="endArrow=classic;html=1;exitX=1;exitY=0.5;exitDx=0;exitDy=0;entryX=0;entryY=0.5;entryDx=0;entryDy=0;" parent="1" source="3YVvCQ1gq88eceu3Uc82-99" target="3YVvCQ1gq88eceu3Uc82-104" edge="1">
          <mxGeometry width="50" height="50" relative="1" as="geometry">
            <mxPoint x="27" y="815" as="sourcePoint"/>
            <mxPoint x="537" y="725" as="targetPoint"/>
          </mxGeometry>
        </mxCell>
        <mxCell id="3YVvCQ1gq88eceu3Uc82-104" value="&lt;b style=&quot;font-size: 15px&quot;&gt;conv-1&lt;/b&gt;" style="rounded=1;whiteSpace=wrap;html=1;fillColor=#b0e3e6;strokeColor=#0e8088;" parent="1" vertex="1">
          <mxGeometry x="570" y="675" width="60" height="30" as="geometry"/>
        </mxCell>
        <mxCell id="3YVvCQ1gq88eceu3Uc82-105" value="" style="endArrow=classic;html=1;exitX=1;exitY=0.5;exitDx=0;exitDy=0;entryX=0;entryY=0.5;entryDx=0;entryDy=0;" parent="1" source="3YVvCQ1gq88eceu3Uc82-104" target="3YVvCQ1gq88eceu3Uc82-53" edge="1">
          <mxGeometry width="50" height="50" relative="1" as="geometry">
            <mxPoint x="92" y="815" as="sourcePoint"/>
            <mxPoint x="702" y="630" as="targetPoint"/>
            <Array as="points">
              <mxPoint x="702" y="690"/>
              <mxPoint x="702" y="630"/>
            </Array>
          </mxGeometry>
        </mxCell>
        <mxCell id="3YVvCQ1gq88eceu3Uc82-107" value="" style="endArrow=classic;html=1;exitX=0.5;exitY=1;exitDx=0;exitDy=0;entryX=0.5;entryY=0;entryDx=0;entryDy=0;" parent="1" source="3YVvCQ1gq88eceu3Uc82-136" target="3YVvCQ1gq88eceu3Uc82-108" edge="1">
          <mxGeometry width="50" height="50" relative="1" as="geometry">
            <mxPoint x="324" y="510" as="sourcePoint"/>
            <mxPoint x="492" y="580" as="targetPoint"/>
          </mxGeometry>
        </mxCell>
        <mxCell id="3YVvCQ1gq88eceu3Uc82-108" value="&lt;b&gt;&lt;font style=&quot;font-size: 15px&quot;&gt;cat&lt;/font&gt;&lt;/b&gt;" style="ellipse;whiteSpace=wrap;html=1;aspect=fixed;fillColor=#fad9d5;strokeColor=#ae4132;" parent="1" vertex="1">
          <mxGeometry x="609" y="515" width="40" height="40" as="geometry"/>
        </mxCell>
        <mxCell id="3YVvCQ1gq88eceu3Uc82-109" value="" style="endArrow=classic;html=1;exitX=0.5;exitY=1;exitDx=0;exitDy=0;entryX=0.5;entryY=0;entryDx=0;entryDy=0;" parent="1" source="3YVvCQ1gq88eceu3Uc82-146" target="3YVvCQ1gq88eceu3Uc82-108" edge="1">
          <mxGeometry width="50" height="50" relative="1" as="geometry">
            <mxPoint x="490" y="510" as="sourcePoint"/>
            <mxPoint x="188" y="620" as="targetPoint"/>
          </mxGeometry>
        </mxCell>
        <mxCell id="3YVvCQ1gq88eceu3Uc82-110" value="" style="endArrow=classic;html=1;exitX=0.5;exitY=1;exitDx=0;exitDy=0;entryX=0.5;entryY=0;entryDx=0;entryDy=0;" parent="1" source="3YVvCQ1gq88eceu3Uc82-96" target="3YVvCQ1gq88eceu3Uc82-108" edge="1">
          <mxGeometry width="50" height="50" relative="1" as="geometry">
            <mxPoint x="585" y="490" as="sourcePoint"/>
            <mxPoint x="558" y="560" as="targetPoint"/>
          </mxGeometry>
        </mxCell>
        <mxCell id="3YVvCQ1gq88eceu3Uc82-111" value="" style="endArrow=classic;html=1;exitX=0;exitY=1;exitDx=0;exitDy=0;entryX=0.5;entryY=0;entryDx=0;entryDy=0;" parent="1" source="3YVvCQ1gq88eceu3Uc82-151" target="3YVvCQ1gq88eceu3Uc82-108" edge="1">
          <mxGeometry width="50" height="50" relative="1" as="geometry">
            <mxPoint x="680" y="510" as="sourcePoint"/>
            <mxPoint x="188" y="620" as="targetPoint"/>
          </mxGeometry>
        </mxCell>
        <mxCell id="3YVvCQ1gq88eceu3Uc82-112" value="" style="endArrow=classic;html=1;exitX=1;exitY=0.5;exitDx=0;exitDy=0;entryX=0;entryY=0.5;entryDx=0;entryDy=0;" parent="1" source="3YVvCQ1gq88eceu3Uc82-108" target="3YVvCQ1gq88eceu3Uc82-113" edge="1">
          <mxGeometry width="50" height="50" relative="1" as="geometry">
            <mxPoint x="157" y="675" as="sourcePoint"/>
            <mxPoint x="667" y="585" as="targetPoint"/>
          </mxGeometry>
        </mxCell>
        <mxCell id="3YVvCQ1gq88eceu3Uc82-113" value="&lt;b style=&quot;font-size: 15px&quot;&gt;conv-1&lt;/b&gt;" style="rounded=1;whiteSpace=wrap;html=1;fillColor=#b0e3e6;strokeColor=#0e8088;" parent="1" vertex="1">
          <mxGeometry x="736" y="520" width="60" height="30" as="geometry"/>
        </mxCell>
        <mxCell id="3YVvCQ1gq88eceu3Uc82-114" value="" style="endArrow=classic;html=1;exitX=1;exitY=0.5;exitDx=0;exitDy=0;entryX=0;entryY=0.5;entryDx=0;entryDy=0;" parent="1" source="3YVvCQ1gq88eceu3Uc82-113" target="3YVvCQ1gq88eceu3Uc82-57" edge="1">
          <mxGeometry width="50" height="50" relative="1" as="geometry">
            <mxPoint x="174" y="670" as="sourcePoint"/>
            <mxPoint x="814" y="485" as="targetPoint"/>
            <Array as="points">
              <mxPoint x="802" y="530"/>
              <mxPoint x="860" y="460"/>
            </Array>
          </mxGeometry>
        </mxCell>
        <mxCell id="3YVvCQ1gq88eceu3Uc82-116" value="&lt;font&gt;&lt;b&gt;&lt;span style=&quot;font-size: 15px&quot;&gt;MSCFB&lt;/span&gt;&lt;span style=&quot;font-size: 12.5px&quot;&gt;’&lt;/span&gt;&lt;/b&gt;&lt;/font&gt;" style="rounded=1;whiteSpace=wrap;html=1;fillColor=#7179F0;strokeColor=#10739e;" parent="1" vertex="1">
          <mxGeometry x="320.5" y="310" width="90" height="50" as="geometry"/>
        </mxCell>
        <mxCell id="3YVvCQ1gq88eceu3Uc82-117" value="&lt;b&gt;&lt;span style=&quot;font-size: 15px&quot;&gt;MSCFB&lt;/span&gt;&lt;span style=&quot;font-size: 12.5px&quot;&gt;’&lt;/span&gt;&lt;/b&gt;" style="rounded=1;whiteSpace=wrap;html=1;fillColor=#7179F0;strokeColor=#10739e;" parent="1" vertex="1">
          <mxGeometry x="470" y="310" width="90" height="50" as="geometry"/>
        </mxCell>
        <mxCell id="3YVvCQ1gq88eceu3Uc82-118" value="" style="endArrow=classic;html=1;entryX=0;entryY=0.5;entryDx=0;entryDy=0;exitX=1;exitY=0.5;exitDx=0;exitDy=0;" parent="1" source="3YVvCQ1gq88eceu3Uc82-116" target="3YVvCQ1gq88eceu3Uc82-117" edge="1">
          <mxGeometry width="50" height="50" relative="1" as="geometry">
            <mxPoint x="180.5" y="735" as="sourcePoint"/>
            <mxPoint x="230.5" y="685" as="targetPoint"/>
          </mxGeometry>
        </mxCell>
        <mxCell id="3YVvCQ1gq88eceu3Uc82-119" value="&lt;b&gt;&lt;span style=&quot;font-size: 15px&quot;&gt;MSCFB&lt;/span&gt;&lt;span style=&quot;font-size: 12.5px&quot;&gt;’&lt;/span&gt;&lt;/b&gt;" style="rounded=1;whiteSpace=wrap;html=1;fillColor=#7179F0;strokeColor=#10739e;" parent="1" vertex="1">
          <mxGeometry x="657" y="310" width="90" height="50" as="geometry"/>
        </mxCell>
        <mxCell id="3YVvCQ1gq88eceu3Uc82-120" value="" style="endArrow=classic;html=1;entryX=0;entryY=0.5;entryDx=0;entryDy=0;exitX=1;exitY=0.5;exitDx=0;exitDy=0;" parent="1" target="3YVvCQ1gq88eceu3Uc82-119" edge="1">
          <mxGeometry width="50" height="50" relative="1" as="geometry">
            <mxPoint x="627" y="335" as="sourcePoint"/>
            <mxPoint x="447" y="685" as="targetPoint"/>
          </mxGeometry>
        </mxCell>
        <mxCell id="3YVvCQ1gq88eceu3Uc82-121" value="" style="endArrow=classic;html=1;entryX=0;entryY=0.5;entryDx=0;entryDy=0;exitX=1;exitY=0.5;exitDx=0;exitDy=0;" parent="1" edge="1">
          <mxGeometry width="50" height="50" relative="1" as="geometry">
            <mxPoint x="560" y="335" as="sourcePoint"/>
            <mxPoint x="590" y="335" as="targetPoint"/>
          </mxGeometry>
        </mxCell>
        <mxCell id="3YVvCQ1gq88eceu3Uc82-123" value="&lt;b&gt;&lt;font style=&quot;font-size: 20px&quot;&gt;....&lt;/font&gt;&lt;/b&gt;" style="text;html=1;strokeColor=none;fillColor=none;align=center;verticalAlign=middle;whiteSpace=wrap;rounded=0;" parent="1" vertex="1">
          <mxGeometry x="589" y="320" width="40" height="20" as="geometry"/>
        </mxCell>
        <mxCell id="3YVvCQ1gq88eceu3Uc82-124" value="" style="endArrow=classic;html=1;entryX=0.5;entryY=0;entryDx=0;entryDy=0;" parent="1" target="3YVvCQ1gq88eceu3Uc82-136" edge="1">
          <mxGeometry width="50" height="50" relative="1" as="geometry">
            <mxPoint x="420" y="336" as="sourcePoint"/>
            <mxPoint x="420" y="448.5" as="targetPoint"/>
          </mxGeometry>
        </mxCell>
        <mxCell id="3YVvCQ1gq88eceu3Uc82-132" value="" style="endArrow=classic;html=1;entryX=0;entryY=0.5;entryDx=0;entryDy=0;exitX=1;exitY=0.5;exitDx=0;exitDy=0;" parent="1" source="3YVvCQ1gq88eceu3Uc82-37" target="3YVvCQ1gq88eceu3Uc82-116" edge="1">
          <mxGeometry width="50" height="50" relative="1" as="geometry">
            <mxPoint x="-90" y="960" as="sourcePoint"/>
            <mxPoint x="-40" y="910" as="targetPoint"/>
          </mxGeometry>
        </mxCell>
        <mxCell id="3YVvCQ1gq88eceu3Uc82-136" value="" style="shape=orEllipse;perimeter=ellipsePerimeter;whiteSpace=wrap;html=1;backgroundOutline=1;strokeColor=#114E9E;fillColor=none;" parent="1" vertex="1">
          <mxGeometry x="413" y="452.5" width="15" height="15" as="geometry"/>
        </mxCell>
        <mxCell id="3YVvCQ1gq88eceu3Uc82-142" value="" style="endArrow=classic;html=1;" parent="1" edge="1">
          <mxGeometry width="50" height="50" relative="1" as="geometry">
            <mxPoint x="390" y="460" as="sourcePoint"/>
            <mxPoint x="413" y="460" as="targetPoint"/>
          </mxGeometry>
        </mxCell>
        <mxCell id="3YVvCQ1gq88eceu3Uc82-144" value="" style="endArrow=classic;html=1;exitX=1;exitY=0.5;exitDx=0;exitDy=0;entryX=0;entryY=0.5;entryDx=0;entryDy=0;" parent="1" source="3YVvCQ1gq88eceu3Uc82-136" target="3YVvCQ1gq88eceu3Uc82-14" edge="1">
          <mxGeometry width="50" height="50" relative="1" as="geometry">
            <mxPoint x="274" y="469" as="sourcePoint"/>
            <mxPoint x="309" y="469" as="targetPoint"/>
          </mxGeometry>
        </mxCell>
        <mxCell id="3YVvCQ1gq88eceu3Uc82-145" value="" style="endArrow=classic;html=1;entryX=0.5;entryY=0;entryDx=0;entryDy=0;" parent="1" target="3YVvCQ1gq88eceu3Uc82-146" edge="1">
          <mxGeometry width="50" height="50" relative="1" as="geometry">
            <mxPoint x="577" y="335" as="sourcePoint"/>
            <mxPoint x="571" y="435" as="targetPoint"/>
          </mxGeometry>
        </mxCell>
        <mxCell id="3YVvCQ1gq88eceu3Uc82-146" value="" style="shape=orEllipse;perimeter=ellipsePerimeter;whiteSpace=wrap;html=1;backgroundOutline=1;strokeColor=#114E9E;fillColor=none;" parent="1" vertex="1">
          <mxGeometry x="569" y="452.5" width="15" height="15" as="geometry"/>
        </mxCell>
        <mxCell id="3YVvCQ1gq88eceu3Uc82-147" value="" style="endArrow=classic;html=1;exitX=1;exitY=0.5;exitDx=0;exitDy=0;entryX=0;entryY=0.5;entryDx=0;entryDy=0;" parent="1" edge="1">
          <mxGeometry width="50" height="50" relative="1" as="geometry">
            <mxPoint x="584" y="460" as="sourcePoint"/>
            <mxPoint x="621" y="460" as="targetPoint"/>
          </mxGeometry>
        </mxCell>
        <mxCell id="3YVvCQ1gq88eceu3Uc82-151" value="" style="shape=orEllipse;perimeter=ellipsePerimeter;whiteSpace=wrap;html=1;backgroundOutline=1;strokeColor=#114E9E;fillColor=none;" parent="1" vertex="1">
          <mxGeometry x="801" y="452.5" width="15" height="15" as="geometry"/>
        </mxCell>
        <mxCell id="3YVvCQ1gq88eceu3Uc82-154" value="" style="endArrow=classic;html=1;" parent="1" edge="1">
          <mxGeometry width="50" height="50" relative="1" as="geometry">
            <mxPoint x="779" y="461" as="sourcePoint"/>
            <mxPoint x="801" y="461" as="targetPoint"/>
          </mxGeometry>
        </mxCell>
        <mxCell id="3YVvCQ1gq88eceu3Uc82-155" value="" style="endArrow=classic;html=1;" parent="1" edge="1">
          <mxGeometry width="50" height="50" relative="1" as="geometry">
            <mxPoint x="746" y="335" as="sourcePoint"/>
            <mxPoint x="810" y="335" as="targetPoint"/>
          </mxGeometry>
        </mxCell>
        <mxCell id="3YVvCQ1gq88eceu3Uc82-156" value="" style="endArrow=classic;html=1;entryX=0.5;entryY=0;entryDx=0;entryDy=0;" parent="1" edge="1">
          <mxGeometry width="50" height="50" relative="1" as="geometry">
            <mxPoint x="808.5" y="335" as="sourcePoint"/>
            <mxPoint x="808" y="452.5" as="targetPoint"/>
          </mxGeometry>
        </mxCell>
      </root>
    </mxGraphModel>
  </diagram>
</mxfile>
